<svg width="20" height="21" viewBox="0 0 20 21" fill="none" xmlns="http://www.w3.org/2000/svg">
<path d="M2.88504 20.2897H9.30908V13.3319H7.00104V11.0381H9.30908V8.17088C9.30908 6.58987 10.6033 5.30364 12.1941 5.30364H15.0792V7.59743H12.7711C12.1348 7.59743 11.6171 8.11189 11.6171 8.74432V11.0381H14.975L14.5904 13.3319H11.6171V20.2897H16.8102C18.401 20.2897 19.6952 19.0035 19.6952 17.4225V3.5833C19.6952 2.00229 18.401 0.716064 16.8102 0.716064H2.88504C1.29421 0.716064 0 2.00229 0 3.5833V17.4225C0 19.0035 1.29421 20.2897 2.88504 20.2897ZM1.15402 3.5833C1.15402 2.63472 1.93058 1.86296 2.88504 1.86296H16.8102C17.7647 1.86296 18.5412 2.63472 18.5412 3.5833V17.4225C18.5412 18.3711 17.7647 19.1428 16.8102 19.1428H12.7711V14.4788H15.568L16.3373 9.89122H12.7711V8.74432H16.2332V4.15675H12.1941C9.96693 4.15675 8.15506 5.95743 8.15506 8.17088V9.89122H5.84702V14.4788H8.15506V19.1428H2.88504C1.93058 19.1428 1.15402 18.3711 1.15402 17.4225V3.5833Z" fill="#CEA851"/>
</svg>
