<svg width="20" height="21" viewBox="0 0 20 21" fill="none" xmlns="http://www.w3.org/2000/svg">
<path d="M2.88504 20.2897H16.8102C18.401 20.2897 19.6952 19.0035 19.6952 17.4225V3.5833C19.6952 2.00229 18.401 0.716064 16.8102 0.716064H2.88504C1.29421 0.716064 0 2.00229 0 3.5833V17.4225C0 19.0035 1.29421 20.2897 2.88504 20.2897ZM1.15402 3.5833C1.15402 2.63472 1.93058 1.86296 2.88504 1.86296H16.8102C17.7647 1.86296 18.5412 2.63472 18.5412 3.5833V17.4225C18.5412 18.3711 17.7647 19.1428 16.8102 19.1428H2.88504C1.93058 19.1428 1.15402 18.3711 1.15402 17.4225V3.5833Z" fill="#CEA851"/>
<path d="M9.84762 15.6639C12.711 15.6639 15.0407 13.3486 15.0407 10.5029C15.0407 7.65716 12.711 5.34187 9.84762 5.34187C6.98421 5.34187 4.65454 7.65716 4.65454 10.5029C4.65454 13.3486 6.98421 15.6639 9.84762 15.6639ZM9.84762 6.48877C12.0748 6.48877 13.8867 8.28945 13.8867 10.5029C13.8867 12.7163 12.0748 14.517 9.84762 14.517C7.62042 14.517 5.80856 12.7163 5.80856 10.5029C5.80856 8.28945 7.62042 6.48877 9.84762 6.48877Z" fill="#CEA851"/>
<path d="M15.6177 6.48877C16.5722 6.48877 17.3487 5.717 17.3487 4.76842C17.3487 3.81985 16.5722 3.04808 15.6177 3.04808C14.6632 3.04808 13.8867 3.81985 13.8867 4.76842C13.8867 5.717 14.6632 6.48877 15.6177 6.48877ZM15.6177 4.19498C15.9358 4.19498 16.1947 4.45228 16.1947 4.76842C16.1947 5.08457 15.9358 5.34187 15.6177 5.34187C15.2996 5.34187 15.0407 5.08457 15.0407 4.76842C15.0407 4.45228 15.2996 4.19498 15.6177 4.19498Z" fill="#CEA851"/>
</svg>
