<svg width="25" height="21" viewBox="0 0 25 21" fill="none" xmlns="http://www.w3.org/2000/svg">
<path d="M22.8027 0.716064H2.19727C0.987207 0.716064 0 1.74536 0 3.00951V18.2992C0 19.559 0.982813 20.5926 2.19727 20.5926H22.8027C24.0098 20.5926 25 19.5668 25 18.2992V3.00951C25 1.74964 24.0172 0.716064 22.8027 0.716064ZM22.4993 2.24503L12.5466 12.6335L2.50776 2.24503H22.4993ZM1.46484 17.9826V3.31882L8.51948 10.6191L1.46484 17.9826ZM2.50063 19.0636L9.55972 11.6956L12.0332 14.2552C12.3195 14.5515 12.7816 14.5505 13.0667 14.2528L15.4785 11.7355L22.4994 19.0636H2.50063ZM23.5352 17.9825L16.5143 10.6543L23.5352 3.32611V17.9825Z" fill="#CEA851"/>
</svg>
